/* XPM */
static char * icon_ae_32_xpm[] = {
"32 32 256 2",
"  	c None",
". 	c #000200",
"+ 	c #020501",
"@ 	c #000508",
"# 	c #070A06",
"$ 	c #050B0E",
"% 	c #0B0D0A",
"& 	c #0E0C10",
"* 	c #090F11",
"= 	c #0C1113",
"- 	c #071415",
"; 	c #380715",
"> 	c #0C1511",
", 	c #0F1416",
"' 	c #141513",
") 	c #051918",
"! 	c #121618",
"~ 	c #360C16",
"{ 	c #131719",
"] 	c #14181A",
"^ 	c #111B1B",
"/ 	c #161A1C",
"( 	c #171B1D",
"_ 	c #550B20",
": 	c #191D1F",
"< 	c #35161E",
"[ 	c #1A1E20",
"} 	c #1C2021",
"| 	c #211F22",
"1 	c #182222",
"2 	c #600E22",
"3 	c #1E2224",
"4 	c #202426",
"5 	c #9D0020",
"6 	c #222628",
"7 	c #481D2A",
"8 	c #24282A",
"9 	c #36232C",
"0 	c #B50022",
"a 	c #B5002C",
"b 	c #3F252B",
"c 	c #282C2E",
"d 	c #2D2B2F",
"e 	c #C10032",
"f 	c #910F2B",
"g 	c #B70533",
"h 	c #C30434",
"i 	c #D70021",
"j 	c #2D3133",
"k 	c #CF0229",
"l 	c #D70027",
"m 	c #293334",
"n 	c #D70033",
"o 	c #B00C30",
"p 	c #E80016",
"q 	c #2F3436",
"r 	c #353336",
"s 	c #BB0C30",
"t 	c #E40034",
"u 	c #E7012A",
"v 	c #ED0026",
"w 	c #EF0021",
"x 	c #EC002B",
"y 	c #F20022",
"z 	c #ED0032",
"A 	c #EF002D",
"B 	c #333739",
"C 	c #F0002E",
"D 	c #E70330",
"E 	c #F2002F",
"F 	c #EF0039",
"G 	c #46333B",
"H 	c #2F3A3B",
"I 	c #E90525",
"J 	c #F9002C",
"K 	c #AB1734",
"L 	c #921E39",
"M 	c #353A3C",
"N 	c #C91438",
"O 	c #3B3F41",
"P 	c #DE103D",
"Q 	c #3A4148",
"R 	c #EA0F38",
"S 	c #3F4345",
"T 	c #D71940",
"U 	c #EB143E",
"V 	c #CD1D46",
"W 	c #A52A45",
"X 	c #434749",
"Y 	c #ED173F",
"Z 	c #454A4C",
"` 	c #C22948",
" .	c #494D4F",
"..	c #EF1D47",
"+.	c #455050",
"@.	c #EF1E4C",
"#.	c #E5214D",
"$.	c #AD324C",
"%.	c #A83650",
"&.	c #4D5154",
"*.	c #4F5355",
"=.	c #F3254F",
"-.	c #4D5859",
";.	c #EB2A52",
">.	c #A24056",
",.	c #B03D56",
"'.	c #F02F55",
").	c #575C5E",
"!.	c #675860",
"~.	c #F0315B",
"{.	c #566162",
"].	c #D33D5B",
"^.	c #EB365A",
"/.	c #AC495F",
"(.	c #F3355E",
"_.	c #DD3D60",
":.	c #F5375F",
"<.	c #606567",
"[.	c #F03C5E",
"}.	c #B45065",
"|.	c #F23F65",
"1.	c #656A6C",
"2.	c #676C6E",
"3.	c #EF4565",
"4.	c #C8536A",
"5.	c #E94A6A",
"6.	c #CE526C",
"7.	c #F1486D",
"8.	c #6B7072",
"9.	c #A16273",
"0.	c #C35D72",
"a.	c #717578",
"b.	c #F84F73",
"c.	c #F25270",
"d.	c #F15276",
"e.	c #78767A",
"f.	c #DF5A77",
"g.	c #777C7E",
"h.	c #F2627C",
"i.	c #F96280",
"j.	c #818688",
"k.	c #F36584",
"l.	c #F66786",
"m.	c #EB6B84",
"n.	c #B27D8A",
"o.	c #878C8E",
"p.	c #CE7C8D",
"q.	c #D37B8E",
"r.	c #968D93",
"s.	c #F6758D",
"t.	c #FF7893",
"u.	c #F47C95",
"v.	c #94999B",
"w.	c #BB939B",
"x.	c #C2939D",
"y.	c #F6849B",
"z.	c #9DA2A4",
"A.	c #F68B9F",
"B.	c #E591A2",
"C.	c #A1A6A9",
"D.	c #B3A2AA",
"E.	c #F98FA8",
"F.	c #A4A9AC",
"G.	c #F895AC",
"H.	c #A8AEB0",
"I.	c #ACB1B4",
"J.	c #F89CAF",
"K.	c #B0B5B7",
"L.	c #B7B4B9",
"M.	c #C4B1B3",
"N.	c #BDB4BA",
"O.	c #B3B8BA",
"P.	c #B4B9BC",
"Q.	c #B7B9B6",
"R.	c #BAB8BC",
"S.	c #B5BABD",
"T.	c #C3B7B7",
"U.	c #B7BCBF",
"V.	c #F9AAB8",
"W.	c #F2ACBE",
"X.	c #BEBCC0",
"Y.	c #B9BEC1",
"Z.	c #BDBFBC",
"`.	c #DAB7BE",
" +	c #F8B0BC",
".+	c #E6B6C0",
"++	c #BDC2C4",
"@+	c #C2C4C1",
"#+	c #F7B5BF",
"$+	c #BFC5C7",
"%+	c #FFB3C1",
"&+	c #C5C7C4",
"*+	c #C3C8CB",
"=+	c #FFB8CA",
"-+	c #FABAC9",
";+	c #C5CACD",
">+	c #E6C3CA",
",+	c #FCBDCC",
"'+	c #C8CDD0",
")+	c #BCD1D0",
"!+	c #F9C0CD",
"~+	c #CBD0D2",
"{+	c #C5D2D2",
"]+	c #FBC3D0",
"^+	c #D4CFCD",
"/+	c #E5CACE",
"(+	c #CFD1CE",
"_+	c #CED3D6",
":+	c #F9C7D2",
"<+	c #FFC6D3",
"[+	c #D3D5D2",
"}+	c #FBC9D4",
"|+	c #D0D6D8",
"1+	c #D5D7D4",
"2+	c #CDDADB",
"3+	c #FFCDD8",
"4+	c #D6DBDD",
"5+	c #DCDADE",
"6+	c #FCD2DA",
"7+	c #E6D9DA",
"8+	c #DADDD9",
"9+	c #D9DEE1",
"0+	c #DEE0DC",
"a+	c #FBD8DE",
"b+	c #DDE2E5",
"c+	c #F4DFE2",
"d+	c #FFDCE3",
"e+	c #E3E5E2",
"f+	c #E0E6E8",
"g+	c #E7E4E9",
"h+	c #EDE7E6",
"i+	c #E5EAED",
"j+	c #FAE5E7",
"k+	c #EAECE9",
"l+	c #DDF2F1",
"m+	c #EDEFEC",
"n+	c #FFEAED",
"o+	c #EBF0F3",
"p+	c #F4EEED",
"q+	c #FCEFEF",
"r+	c #EEF3F6",
"s+	c #F1F3F0",
"t+	c #FFF3F3",
"u+	c #F3F8FB",
"v+	c #F6F8F4",
"w+	c #FFF5FC",
"x+	c #FDF7F6",
"y+	c #F3FDF8",
"z+	c #F9FCF8",
"A+	c #FFFBF9",
"B+	c #F7FDFF",
"C+	c #FBFDFA",
"D+	c #FFFDFB",
"E+	c #FFFDFF",
"F+	c #FCFFFB",
"G+	c #FEFFFC",
"G+G+G+G+G+G+G+G+G+G+C+A+x+^+L.R.O.R.X.g+A+A+A+A+G+G+G+G+G+G+G+G+",
"G+G+G+G+G+G+G+G+z+v+x.%.K T '.(.:.(.;.s W $.V A.G+G+G+G+G+G+G+G+",
"G+G+G+G+G+G+C+s+;+K.k+n+<+E.z C C C C F i.:+^+P.0+z+G+G+G+G+G+G+",
"G+G+G+G+G+C+9+U.e+G+G+G+G+-+F 3.C z C R y.G+G+C+*+;+s+G+G+G+G+G+",
"G+G+G+G+z+|+$+u+G+G+G+G+G+d.@.6+C C C C |.G+G+G+G+8+$+k+G+G+G+G+",
"G+G+G+C+|+*+G+G+G+G+G+G+q+F u.G+;.C z C @.:+G+A+G+G+e+$+m+G+G+G+",
"G+G+C+9+$+G+G+G+G+G+G+G+G.z 6+i+A.C z C F y.G+G+G+G+G+f+@+v+G+G+",
"G+G+s+S.v+G+G+G+G+G+G+G+[.:.A+'+d+C C C C 7.A+G+G+G+G+G+[+~+G+G+",
"G+z+*+f+G+G+G+G+G+G+G+6+P 9.x+m+G+(.D h C =.!+G+G+G+G+G+G+U.m+G+",
"G+s+S.G+G+G+G+G+G+G+l+m.P N.z+G+A+G.u N C z y.G+G+G+4+u+o+|+$+G+",
"G+&+8+z.H.++b+G+G+G+5+#.c.t+G+G+|+/+z z C J 5.R.o.<.X *.1.F.j.o+",
"r+v.8.8 j j X &.2.{+W.R V.A+G+G+s+p+|.u e 2 < r 8 * ! , / j j.F.",
"~+S } 6 4 ] 4 ( + -.]...a+G+G+G+G+A+J.i ~ % = ! 4 m m 3 ! ! c a.",
"F.8.$ [ , ' ( } : ) 5 l.w+e+I.|+G+G+j+L - ! / : ! / 3 ! , ! g.o.",
"P.U.<.@ } 8 ( / : > ; >+&+O Q F.G+G+_+d ( 3 ! [ 6 ( ] = M z.v+Y.",
"P.G+m+H.H 3 4 ! ] 4 ! a.e.# *.n+t+S.8 ! ( ] * % } } 3 o.k+C+G+Y.",
"O.G+G+G+C+Y.Z ( ( } 4 = ] . @ 2 _ : = 3 3 * * 6 } B ++G+G+G+G+Z.",
"S.G+G+G+G+G+f+2.: } 3 } ] . . * . $ ] / / 3 , ] b M.G+G+G+G+G+P.",
"U.G+G+G+G+G+G+7+!.3 ( ( [ . . . $ / : : / ] ^ 9 0 t.A+G+A+G+G+P.",
"9+4+G+G+G+G+G+%+` 7 1 ( ] # . $ @ 8 ! : 6 ! | f v (.a+G+G+G+G+P.",
"G+K.G+G+G+G+G+u.y }. .[ 8 : = = & S j j j G f D C C V.G+G+G+z+S.",
"C+O.G+G+G+G+a+[.z =+{+2.X  .O ! . ] q j.C.p.E C z I k.q+G+G+|+0+",
"G+1+4+G+G+G+V.C ~.6+G+B+4+4+Q.M = = X C.k+6+=.C z C U 6+G+G+H.G+",
"G+C+K.G+G+q+l.p h.q+G+G+G+G+G+).O } c 3 +.r.f.v z z I G.E+4+_+G+",
"G+C+9+'+G+}+..I y.G+G+G+G+G+G+).<.*.} ( $ {.B.z C z C (.c+P.z+G+",
"G+G+z+*+5+G.I U V.G+G+G+G+G+9+2.).B c O 8.2+3+'.C z C C w.f+G+G+",
"G+G+G+r+M._.w ~.}+G+G+G+G+G+o+8+(+U.++(+i+G+t+l.I C E a 4.t+G+G+",
"G+G+G+G+.+g l b.n+G+G+G+G+G+G+G+G+G+G+G+G+G+G+J.z E g e D a+G+G+",
"A+G+G+q+k.l a q.G+G+G+G+G+G+G+G+G+G+G+G+G+G+G+3+^.o h D v s.A+G+",
"G+G+G+!+z C t 0.)+y+G+G+G+G+G+G+G+G+G+G+G+G+G+5+/.k z z C F 6+G+",
"h.[.U z v v v C n ,.n.h+G+G+G+G+G+G+G+t+A.6.>.h u u v v v v z U ",
"V.#+-+<+}+:+<+,+-+ +W.T.O.S.O.Z.@+U.P.L.D.`.=+-+!+:+}+}+:+:+!+-+"};
